<svg width="1000" height="931" viewBox="0 0 1000 931" fill="none" xmlns="http://www.w3.org/2000/svg">
<g clip-path="url(#clip0_1051_26)">
<path fill-rule="evenodd" clip-rule="evenodd" d="M292.83 543C377.64 575.53 440.83 480.89 440.83 480.89L230.7 398.07C230.7 398.07 208 510.44 292.83 543Z" fill="white"/>
<path fill-rule="evenodd" clip-rule="evenodd" d="M707.251 543.001C792.061 510.461 769.391 398.091 769.391 398.091L559.311 480.891C559.311 480.891 622.451 575.511 707.251 543.001Z" fill="white"/>
<path fill-rule="evenodd" clip-rule="evenodd" d="M950 191.51C865.84 30.7304 639.74 -19.2096 638.84 6.3104C637.94 31.8304 805.42 79.8104 889.21 216.81C979.73 364.81 948.3 480.87 972.21 487.29C996.12 493.71 1029.54 343.64 950 191.51Z" fill="#C0A9FF"/>
<path fill-rule="evenodd" clip-rule="evenodd" d="M682.66 227.261C801 303.001 819.45 385.931 850.32 377.221C881.19 368.511 809.74 234.611 711.57 173.411C614.39 112.831 461.82 124.551 462.38 150.411C462.94 176.271 564.32 151.551 682.66 227.261Z" fill="#C0A9FF"/>
<path fill-rule="evenodd" clip-rule="evenodd" d="M740.73 696.13C674.89 732 598.26 745.74 601.86 767.41C605.8 791 704.5 782.09 780.74 737.92C850.57 697.47 899.23 623 887.391 610.55C874.48 597 812.42 657 740.73 696.13Z" fill="#C0A9FF"/>
<path fill-rule="evenodd" clip-rule="evenodd" d="M321.27 862.18C170.809 829.18 113.85 726.18 90.7095 747.27C67.5695 768.36 175.71 894.27 304.71 921.98C433.71 949.69 574.18 906.8 569.33 879.67C564.33 851.75 475.719 896.09 321.27 862.18Z" fill="#C0A9FF"/>
<path fill-rule="evenodd" clip-rule="evenodd" d="M146.24 684.001C259.98 769.621 418.24 773.001 418.77 749.101C419.3 725.201 280.94 720.201 178.52 634.761C83.2904 555.321 36.3404 408.261 7.29043 418.001C-21.7596 427.741 38.3804 602.811 146.24 684.001Z" fill="#C0A9FF"/>
<path fill-rule="evenodd" clip-rule="evenodd" d="M66.7505 286.18C98.1405 300.91 77.7505 232.18 216.191 137.87C354.631 43.5602 437.141 73.0002 433.271 42.3902C429.531 12.8702 297.271 2.25021 201.491 64.2402C99.2905 130.38 34.2305 270.91 66.7505 286.18Z" fill="#C0A9FF"/>
</g>
<defs>
<clipPath id="clip0_1051_26">
<rect width="1000" height="930.94" fill="white"/>
</clipPath>
</defs>
</svg>
